<mxfile host="app.diagrams.net" agent="Mozilla/5.0 (Windows NT 10.0; Win64; x64) AppleWebKit/537.36 (KHTML, like Gecko) Chrome/127.0.0.0 Safari/537.36" version="24.7.7">
  <diagram name="Diagrama de blocos" id="oh575O3D4EwmFB1Y6Epg">
    <mxGraphModel dx="1843" dy="746" grid="1" gridSize="10" guides="1" tooltips="1" connect="1" arrows="1" fold="1" page="1" pageScale="1" pageWidth="827" pageHeight="1169" math="0" shadow="0">
      <root>
        <mxCell id="0" />
        <mxCell id="1" parent="0" />
        <mxCell id="Hxf--vFEC0rzbbBocpbd-23" value="STM32 G474RE&lt;br&gt;&lt;br&gt;CARRO CONTROLADO" style="rounded=0;whiteSpace=wrap;html=1;" parent="1" vertex="1">
          <mxGeometry x="154" y="160" width="529" height="360" as="geometry" />
        </mxCell>
        <mxCell id="Hxf--vFEC0rzbbBocpbd-5" value="LCD 2x16" style="rounded=0;whiteSpace=wrap;html=1;" parent="1" vertex="1">
          <mxGeometry x="727" y="225" width="89" height="60" as="geometry" />
        </mxCell>
        <mxCell id="Hxf--vFEC0rzbbBocpbd-34" value="(UART)&lt;div&gt;Bluetooth&lt;/div&gt;" style="rounded=0;whiteSpace=wrap;html=1;" parent="1" vertex="1">
          <mxGeometry x="274" y="160" width="100" height="60" as="geometry" />
        </mxCell>
        <mxCell id="Hxf--vFEC0rzbbBocpbd-35" value="Celular" style="rounded=0;whiteSpace=wrap;html=1;" parent="1" vertex="1">
          <mxGeometry x="264" y="40" width="120" height="60" as="geometry" />
        </mxCell>
        <mxCell id="Hxf--vFEC0rzbbBocpbd-41" value="I2C2_SCL / I2C2_CLK" style="rounded=0;whiteSpace=wrap;html=1;" parent="1" vertex="1">
          <mxGeometry x="575" y="220" width="109" height="70" as="geometry" />
        </mxCell>
        <mxCell id="Hxf--vFEC0rzbbBocpbd-46" style="edgeStyle=orthogonalEdgeStyle;rounded=0;orthogonalLoop=1;jettySize=auto;html=1;exitX=0.5;exitY=1;exitDx=0;exitDy=0;" parent="1" edge="1">
          <mxGeometry relative="1" as="geometry">
            <mxPoint x="404.5" y="759" as="sourcePoint" />
            <mxPoint x="404.5" y="759" as="targetPoint" />
          </mxGeometry>
        </mxCell>
        <mxCell id="YoK6R6WBMQCP4nlX7dxA-3" value="" style="edgeStyle=orthogonalEdgeStyle;rounded=0;orthogonalLoop=1;jettySize=auto;html=1;" parent="1" source="zvLF1-X7iXJekeEMlv25-25" target="YoK6R6WBMQCP4nlX7dxA-1" edge="1">
          <mxGeometry relative="1" as="geometry" />
        </mxCell>
        <mxCell id="zvLF1-X7iXJekeEMlv25-25" value="Encoder" style="rounded=0;whiteSpace=wrap;html=1;" parent="1" vertex="1">
          <mxGeometry x="726" y="330" width="93" height="68" as="geometry" />
        </mxCell>
        <mxCell id="YoK6R6WBMQCP4nlX7dxA-1" value="PWM" style="rounded=0;whiteSpace=wrap;html=1;" parent="1" vertex="1">
          <mxGeometry x="573" y="330" width="110" height="68" as="geometry" />
        </mxCell>
        <mxCell id="HK4a7Ahogq2S8Dki3VrH-1" value="" style="endArrow=classic;startArrow=classic;html=1;rounded=0;entryX=0;entryY=0.5;entryDx=0;entryDy=0;exitX=1;exitY=0.5;exitDx=0;exitDy=0;" parent="1" source="Hxf--vFEC0rzbbBocpbd-41" target="Hxf--vFEC0rzbbBocpbd-5" edge="1">
          <mxGeometry width="50" height="50" relative="1" as="geometry">
            <mxPoint x="670" y="130" as="sourcePoint" />
            <mxPoint x="720" y="80" as="targetPoint" />
          </mxGeometry>
        </mxCell>
        <mxCell id="HK4a7Ahogq2S8Dki3VrH-2" value="" style="endArrow=classic;startArrow=classic;html=1;rounded=0;entryX=0;entryY=0.5;entryDx=0;entryDy=0;exitX=1;exitY=0.5;exitDx=0;exitDy=0;" parent="1" edge="1">
          <mxGeometry width="50" height="50" relative="1" as="geometry">
            <mxPoint x="683" y="363.5" as="sourcePoint" />
            <mxPoint x="727" y="363.5" as="targetPoint" />
          </mxGeometry>
        </mxCell>
        <mxCell id="HK4a7Ahogq2S8Dki3VrH-3" value="" style="endArrow=classic;startArrow=classic;html=1;rounded=0;entryX=0.5;entryY=1;entryDx=0;entryDy=0;exitX=0.5;exitY=0;exitDx=0;exitDy=0;" parent="1" source="Hxf--vFEC0rzbbBocpbd-34" target="Hxf--vFEC0rzbbBocpbd-35" edge="1">
          <mxGeometry width="50" height="50" relative="1" as="geometry">
            <mxPoint x="404" y="140" as="sourcePoint" />
            <mxPoint x="448" y="140" as="targetPoint" />
          </mxGeometry>
        </mxCell>
        <mxCell id="rANmmW9tBNY58GJBRYMB-1" value="(UART)&lt;div&gt;Bluetooth&lt;/div&gt;" style="rounded=0;whiteSpace=wrap;html=1;" parent="1" vertex="1">
          <mxGeometry x="440" y="160" width="100" height="60" as="geometry" />
        </mxCell>
        <mxCell id="rANmmW9tBNY58GJBRYMB-2" value="Robô Autônomo" style="rounded=0;whiteSpace=wrap;html=1;" parent="1" vertex="1">
          <mxGeometry x="430" y="40" width="120" height="60" as="geometry" />
        </mxCell>
        <mxCell id="rANmmW9tBNY58GJBRYMB-3" value="" style="endArrow=classic;startArrow=classic;html=1;rounded=0;entryX=0.5;entryY=1;entryDx=0;entryDy=0;exitX=0.5;exitY=0;exitDx=0;exitDy=0;" parent="1" source="rANmmW9tBNY58GJBRYMB-1" target="rANmmW9tBNY58GJBRYMB-2" edge="1">
          <mxGeometry width="50" height="50" relative="1" as="geometry">
            <mxPoint x="570" y="140" as="sourcePoint" />
            <mxPoint x="614" y="140" as="targetPoint" />
          </mxGeometry>
        </mxCell>
        <mxCell id="rANmmW9tBNY58GJBRYMB-4" value="" style="edgeStyle=orthogonalEdgeStyle;rounded=0;orthogonalLoop=1;jettySize=auto;html=1;" parent="1" source="rANmmW9tBNY58GJBRYMB-6" target="rANmmW9tBNY58GJBRYMB-5" edge="1">
          <mxGeometry relative="1" as="geometry" />
        </mxCell>
        <mxCell id="rANmmW9tBNY58GJBRYMB-5" value="ADC" style="rounded=0;whiteSpace=wrap;html=1;" parent="1" vertex="1">
          <mxGeometry x="154" y="315" width="100" height="68" as="geometry" />
        </mxCell>
        <mxCell id="rANmmW9tBNY58GJBRYMB-6" value="Joystick" style="rounded=0;whiteSpace=wrap;html=1;" parent="1" vertex="1">
          <mxGeometry y="315" width="120" height="68" as="geometry" />
        </mxCell>
        <mxCell id="rANmmW9tBNY58GJBRYMB-7" value="STM32 G474RE&lt;br&gt;&lt;br&gt;CARRO AUTÔNOMO" style="rounded=0;whiteSpace=wrap;html=1;" parent="1" vertex="1">
          <mxGeometry x="1090" y="164" width="433" height="356" as="geometry" />
        </mxCell>
        <mxCell id="rANmmW9tBNY58GJBRYMB-8" value="LCD 2x16" style="rounded=0;whiteSpace=wrap;html=1;" parent="1" vertex="1">
          <mxGeometry x="1567" y="249" width="89" height="60" as="geometry" />
        </mxCell>
        <mxCell id="rANmmW9tBNY58GJBRYMB-9" value="" style="edgeStyle=orthogonalEdgeStyle;rounded=0;orthogonalLoop=1;jettySize=auto;html=1;" parent="1" source="rANmmW9tBNY58GJBRYMB-17" target="rANmmW9tBNY58GJBRYMB-10" edge="1">
          <mxGeometry relative="1" as="geometry" />
        </mxCell>
        <mxCell id="rANmmW9tBNY58GJBRYMB-10" value="ADC" style="rounded=0;whiteSpace=wrap;html=1;" parent="1" vertex="1">
          <mxGeometry x="1090" y="230" width="100" height="68" as="geometry" />
        </mxCell>
        <mxCell id="rANmmW9tBNY58GJBRYMB-13" value="I2C2_SCL / I2C2_CLK" style="rounded=0;whiteSpace=wrap;html=1;" parent="1" vertex="1">
          <mxGeometry x="1415" y="244" width="109" height="70" as="geometry" />
        </mxCell>
        <mxCell id="rANmmW9tBNY58GJBRYMB-17" value="Sensor Ultrassônico" style="rounded=0;whiteSpace=wrap;html=1;" parent="1" vertex="1">
          <mxGeometry x="936" y="230" width="120" height="68" as="geometry" />
        </mxCell>
        <mxCell id="rANmmW9tBNY58GJBRYMB-18" value="" style="edgeStyle=orthogonalEdgeStyle;rounded=0;orthogonalLoop=1;jettySize=auto;html=1;" parent="1" source="rANmmW9tBNY58GJBRYMB-19" target="rANmmW9tBNY58GJBRYMB-20" edge="1">
          <mxGeometry relative="1" as="geometry" />
        </mxCell>
        <mxCell id="rANmmW9tBNY58GJBRYMB-19" value="Encoder" style="rounded=0;whiteSpace=wrap;html=1;" parent="1" vertex="1">
          <mxGeometry x="1566" y="333" width="93" height="68" as="geometry" />
        </mxCell>
        <mxCell id="rANmmW9tBNY58GJBRYMB-20" value="PWM" style="rounded=0;whiteSpace=wrap;html=1;" parent="1" vertex="1">
          <mxGeometry x="1413" y="333" width="110" height="68" as="geometry" />
        </mxCell>
        <mxCell id="rANmmW9tBNY58GJBRYMB-21" value="" style="endArrow=classic;startArrow=classic;html=1;rounded=0;entryX=0;entryY=0.5;entryDx=0;entryDy=0;exitX=1;exitY=0.5;exitDx=0;exitDy=0;" parent="1" source="rANmmW9tBNY58GJBRYMB-13" target="rANmmW9tBNY58GJBRYMB-8" edge="1">
          <mxGeometry width="50" height="50" relative="1" as="geometry">
            <mxPoint x="1510" y="154" as="sourcePoint" />
            <mxPoint x="1560" y="104" as="targetPoint" />
          </mxGeometry>
        </mxCell>
        <mxCell id="rANmmW9tBNY58GJBRYMB-22" value="" style="endArrow=classic;startArrow=classic;html=1;rounded=0;entryX=0;entryY=0.5;entryDx=0;entryDy=0;exitX=1;exitY=0.5;exitDx=0;exitDy=0;" parent="1" edge="1">
          <mxGeometry width="50" height="50" relative="1" as="geometry">
            <mxPoint x="1523" y="366.5" as="sourcePoint" />
            <mxPoint x="1567" y="366.5" as="targetPoint" />
          </mxGeometry>
        </mxCell>
        <mxCell id="rANmmW9tBNY58GJBRYMB-24" value="(UART)&lt;div&gt;Bluetooth&lt;/div&gt;" style="rounded=0;whiteSpace=wrap;html=1;" parent="1" vertex="1">
          <mxGeometry x="1280" y="164" width="100" height="60" as="geometry" />
        </mxCell>
        <mxCell id="rANmmW9tBNY58GJBRYMB-25" value="Robô Controlado" style="rounded=0;whiteSpace=wrap;html=1;" parent="1" vertex="1">
          <mxGeometry x="1270" y="44" width="120" height="60" as="geometry" />
        </mxCell>
        <mxCell id="rANmmW9tBNY58GJBRYMB-26" value="" style="endArrow=classic;startArrow=classic;html=1;rounded=0;entryX=0.5;entryY=1;entryDx=0;entryDy=0;exitX=0.5;exitY=0;exitDx=0;exitDy=0;" parent="1" source="rANmmW9tBNY58GJBRYMB-24" target="rANmmW9tBNY58GJBRYMB-25" edge="1">
          <mxGeometry width="50" height="50" relative="1" as="geometry">
            <mxPoint x="1410" y="144" as="sourcePoint" />
            <mxPoint x="1454" y="144" as="targetPoint" />
          </mxGeometry>
        </mxCell>
        <mxCell id="rANmmW9tBNY58GJBRYMB-33" value="" style="edgeStyle=orthogonalEdgeStyle;rounded=0;orthogonalLoop=1;jettySize=auto;html=1;" parent="1" source="rANmmW9tBNY58GJBRYMB-34" target="rANmmW9tBNY58GJBRYMB-35" edge="1">
          <mxGeometry relative="1" as="geometry" />
        </mxCell>
        <mxCell id="rANmmW9tBNY58GJBRYMB-34" value="Limit Switch" style="rounded=0;whiteSpace=wrap;html=1;" parent="1" vertex="1">
          <mxGeometry x="726" y="420" width="93" height="68" as="geometry" />
        </mxCell>
        <mxCell id="rANmmW9tBNY58GJBRYMB-35" value="GPIO" style="rounded=0;whiteSpace=wrap;html=1;" parent="1" vertex="1">
          <mxGeometry x="573" y="420" width="110" height="68" as="geometry" />
        </mxCell>
        <mxCell id="rANmmW9tBNY58GJBRYMB-36" value="" style="edgeStyle=orthogonalEdgeStyle;rounded=0;orthogonalLoop=1;jettySize=auto;html=1;" parent="1" source="rANmmW9tBNY58GJBRYMB-37" target="rANmmW9tBNY58GJBRYMB-38" edge="1">
          <mxGeometry relative="1" as="geometry" />
        </mxCell>
        <mxCell id="rANmmW9tBNY58GJBRYMB-37" value="Limit Switch" style="rounded=0;whiteSpace=wrap;html=1;" parent="1" vertex="1">
          <mxGeometry x="1566" y="418" width="93" height="68" as="geometry" />
        </mxCell>
        <mxCell id="rANmmW9tBNY58GJBRYMB-38" value="GPIO" style="rounded=0;whiteSpace=wrap;html=1;" parent="1" vertex="1">
          <mxGeometry x="1413" y="418" width="110" height="68" as="geometry" />
        </mxCell>
      </root>
    </mxGraphModel>
  </diagram>
</mxfile>
